<svg width="220" height="110" viewBox="0 0 220 110" fill="none" xmlns="http://www.w3.org/2000/svg">
<path d="M20.8984 63.5781V68.5H6.54297V63.5781H20.8984ZM8.71094 40.0625V68.5H2.34375V40.0625H8.71094ZM43.3594 63.5781V68.5H28.2227V63.5781H43.3594ZM30.3906 40.0625V68.5H24.0234V40.0625H30.3906ZM41.4062 51.5078V56.2734H28.2227V51.5078H41.4062ZM43.3789 40.0625V45.0039H28.2227V40.0625H43.3789ZM60.1172 40.0625V68.5H53.7695V40.0625H60.1172ZM68.7695 40.0625V45.0039H45.293V40.0625H68.7695ZM77.1094 38.5V41.5859C77.1094 42.4453 76.9401 43.3307 76.6016 44.2422C76.276 45.1406 75.8464 45.9935 75.3125 46.8008C74.7786 47.5951 74.1927 48.2721 73.5547 48.832L70.8008 47.2891C71.2565 46.5208 71.6536 45.6875 71.9922 44.7891C72.3307 43.8776 72.5 42.8099 72.5 41.5859V38.5H77.1094ZM96.1133 61C96.1133 60.5182 96.0417 60.0885 95.8984 59.7109C95.7552 59.3203 95.4948 58.9622 95.1172 58.6367C94.7396 58.3112 94.2057 57.9857 93.5156 57.6602C92.8255 57.3216 91.9206 56.9766 90.8008 56.625C89.5247 56.2083 88.3073 55.7396 87.1484 55.2188C86.0026 54.6849 84.9805 54.0664 84.082 53.3633C83.1836 52.6602 82.474 51.8398 81.9531 50.9023C81.4453 49.9648 81.1914 48.8711 81.1914 47.6211C81.1914 46.4102 81.4583 45.3164 81.9922 44.3398C82.526 43.3633 83.2747 42.5299 84.2383 41.8398C85.2018 41.1367 86.3346 40.6029 87.6367 40.2383C88.9388 39.8607 90.3711 39.6719 91.9336 39.6719C94.0169 39.6719 95.8464 40.043 97.4219 40.7852C99.0104 41.5143 100.247 42.543 101.133 43.8711C102.018 45.1862 102.461 46.7161 102.461 48.4609H96.1328C96.1328 47.6927 95.9701 47.0156 95.6445 46.4297C95.332 45.8307 94.8503 45.362 94.1992 45.0234C93.5612 44.6849 92.7604 44.5156 91.7969 44.5156C90.8594 44.5156 90.0716 44.6589 89.4336 44.9453C88.8086 45.2188 88.3333 45.5964 88.0078 46.0781C87.6953 46.5599 87.5391 47.0872 87.5391 47.6602C87.5391 48.1159 87.6562 48.5326 87.8906 48.9102C88.138 49.2747 88.4896 49.6198 88.9453 49.9453C89.4141 50.2578 89.987 50.5573 90.6641 50.8438C91.3411 51.1302 92.1159 51.4036 92.9883 51.6641C94.5117 52.1458 95.8594 52.6797 97.0312 53.2656C98.2161 53.8516 99.2122 54.5156 100.02 55.2578C100.827 56 101.432 56.8398 101.836 57.7773C102.253 58.7148 102.461 59.776 102.461 60.9609C102.461 62.224 102.214 63.3438 101.719 64.3203C101.237 65.2969 100.534 66.1302 99.6094 66.8203C98.6979 67.4974 97.6042 68.0117 96.3281 68.3633C95.0521 68.7148 93.6263 68.8906 92.0508 68.8906C90.6185 68.8906 89.2057 68.7083 87.8125 68.3438C86.4193 67.9661 85.1562 67.3932 84.0234 66.625C82.9036 65.8568 82.0052 64.8802 81.3281 63.6953C80.6641 62.4974 80.332 61.0781 80.332 59.4375H86.6992C86.6992 60.2969 86.8229 61.026 87.0703 61.625C87.3177 62.2109 87.6693 62.6862 88.125 63.0508C88.5938 63.4154 89.1602 63.6758 89.8242 63.832C90.4883 63.9883 91.2305 64.0664 92.0508 64.0664C93.0013 64.0664 93.7695 63.9362 94.3555 63.6758C94.9544 63.4023 95.3971 63.0312 95.6836 62.5625C95.9701 62.0938 96.1133 61.5729 96.1133 61ZM119.219 40.0625H124.492L131.328 60.3945L138.145 40.0625H143.418L133.457 68.5H129.18L119.219 40.0625ZM116.172 40.0625H121.543L122.539 61.1367V68.5H116.172V40.0625ZM141.094 40.0625H146.484V68.5H140.098V61.1367L141.094 40.0625ZM170.547 63.5781V68.5H155.41V63.5781H170.547ZM157.578 40.0625V68.5H151.211V40.0625H157.578ZM168.594 51.5078V56.2734H155.41V51.5078H168.594ZM170.566 40.0625V45.0039H155.41V40.0625H170.566ZM193.008 63.5781V68.5H177.871V63.5781H193.008ZM180.039 40.0625V68.5H173.672V40.0625H180.039ZM191.055 51.5078V56.2734H177.871V51.5078H191.055ZM193.027 40.0625V45.0039H177.871V40.0625H193.027ZM209.766 40.0625V68.5H203.418V40.0625H209.766ZM218.418 40.0625V45.0039H194.941V40.0625H218.418Z" fill="#2E2E2E"/>
<path fill-rule="evenodd" clip-rule="evenodd" d="M16 0H155V16.2792L213.512 8.57589L214.687 17.4989L155 25.3569L154.953 25H143.319V11H27.6807V25H21.6666V25.3569H0V16.3569H16V0ZM21.6666 84.49V85H27.6807V99H143.319V85H155V85.2542L213.512 92.9575L212.338 101.88L155 94.3318V110H16V93.49H0V84.49H21.6666Z" fill="#6C63FF"/>
</svg>
