<svg width="112" height="61" viewBox="0 0 112 61" fill="none" xmlns="http://www.w3.org/2000/svg">
<path d="M24.3906 8.5625H29.6641L36.5 28.8945L43.3164 8.5625H48.5898L38.6289 37H34.3516L24.3906 8.5625ZM21.3438 8.5625H26.7148L27.7109 29.6367V37H21.3438V8.5625ZM46.2656 8.5625H51.6562V37H45.2695V29.6367L46.2656 8.5625ZM66.0312 37.3906C64.3516 37.3906 62.8477 37.1237 61.5195 36.5898C60.1914 36.056 59.0651 35.3203 58.1406 34.3828C57.2292 33.4323 56.5326 32.3385 56.0508 31.1016C55.569 29.8646 55.3281 28.543 55.3281 27.1367V26.3945C55.3281 24.819 55.5495 23.3672 55.9922 22.0391C56.4349 20.7109 57.0794 19.5586 57.9258 18.582C58.7852 17.5924 59.8398 16.8307 61.0898 16.2969C62.3398 15.75 63.7656 15.4766 65.3672 15.4766C66.8646 15.4766 68.1992 15.724 69.3711 16.2188C70.543 16.7005 71.5326 17.3971 72.3398 18.3086C73.1471 19.207 73.7591 20.2943 74.1758 21.5703C74.6055 22.8333 74.8203 24.2526 74.8203 25.8281V28.3281H57.7891V24.4023H68.8438V23.9336C68.8438 23.1914 68.707 22.5404 68.4336 21.9805C68.1732 21.4206 67.7826 20.9909 67.2617 20.6914C66.7539 20.3789 66.1094 20.2227 65.3281 20.2227C64.5859 20.2227 63.9674 20.3789 63.4727 20.6914C62.9779 21.0039 62.5807 21.4466 62.2812 22.0195C61.9948 22.5794 61.7865 23.237 61.6562 23.9922C61.526 24.7344 61.4609 25.5352 61.4609 26.3945V27.1367C61.4609 27.957 61.5716 28.7057 61.793 29.3828C62.0143 30.0599 62.3398 30.6393 62.7695 31.1211C63.1992 31.6029 63.7201 31.9805 64.332 32.2539C64.944 32.5273 65.6406 32.6641 66.4219 32.6641C67.3854 32.6641 68.3034 32.4818 69.1758 32.1172C70.0482 31.7396 70.8034 31.1536 71.4414 30.3594L74.293 33.6211C73.8633 34.2461 73.2578 34.8516 72.4766 35.4375C71.7083 36.0104 70.7839 36.4792 69.7031 36.8438C68.6224 37.2083 67.3984 37.3906 66.0312 37.3906ZM87.75 37.3906C86.0703 37.3906 84.5664 37.1237 83.2383 36.5898C81.9102 36.056 80.7839 35.3203 79.8594 34.3828C78.9479 33.4323 78.2513 32.3385 77.7695 31.1016C77.2878 29.8646 77.0469 28.543 77.0469 27.1367V26.3945C77.0469 24.819 77.2682 23.3672 77.7109 22.0391C78.1536 20.7109 78.7982 19.5586 79.6445 18.582C80.5039 17.5924 81.5586 16.8307 82.8086 16.2969C84.0586 15.75 85.4844 15.4766 87.0859 15.4766C88.5833 15.4766 89.918 15.724 91.0898 16.2188C92.2617 16.7005 93.2513 17.3971 94.0586 18.3086C94.8659 19.207 95.4779 20.2943 95.8945 21.5703C96.3242 22.8333 96.5391 24.2526 96.5391 25.8281V28.3281H79.5078V24.4023H90.5625V23.9336C90.5625 23.1914 90.4258 22.5404 90.1523 21.9805C89.8919 21.4206 89.5013 20.9909 88.9805 20.6914C88.4727 20.3789 87.8281 20.2227 87.0469 20.2227C86.3047 20.2227 85.6862 20.3789 85.1914 20.6914C84.6966 21.0039 84.2995 21.4466 84 22.0195C83.7135 22.5794 83.5052 23.237 83.375 23.9922C83.2448 24.7344 83.1797 25.5352 83.1797 26.3945V27.1367C83.1797 27.957 83.2904 28.7057 83.5117 29.3828C83.7331 30.0599 84.0586 30.6393 84.4883 31.1211C84.918 31.6029 85.4388 31.9805 86.0508 32.2539C86.6628 32.5273 87.3594 32.6641 88.1406 32.6641C89.1042 32.6641 90.0221 32.4818 90.8945 32.1172C91.7669 31.7396 92.5221 31.1536 93.1602 30.3594L96.0117 33.6211C95.582 34.2461 94.9766 34.8516 94.1953 35.4375C93.4271 36.0104 92.5026 36.4792 91.4219 36.8438C90.3411 37.2083 89.1172 37.3906 87.75 37.3906ZM110.25 15.8672V20.1445H97.7109V15.8672H110.25ZM100.582 10.6328H106.695V30.3789C106.695 30.9648 106.767 31.4141 106.91 31.7266C107.053 32.0391 107.288 32.2604 107.613 32.3906C107.939 32.5078 108.355 32.5664 108.863 32.5664C109.228 32.5664 109.54 32.5534 109.801 32.5273C110.061 32.5013 110.302 32.4688 110.523 32.4297V36.8438C110.003 37.013 109.449 37.1432 108.863 37.2344C108.277 37.3385 107.639 37.3906 106.949 37.3906C105.634 37.3906 104.495 37.1758 103.531 36.7461C102.581 36.3164 101.852 35.6393 101.344 34.7148C100.836 33.7773 100.582 32.5599 100.582 31.0625V10.6328Z" fill="black"/>
<path fill-rule="evenodd" clip-rule="evenodd" d="M13 6H0V61H112V46.3906H13V6Z" fill="#6C63FF"/>
</svg>
